<svg width="25" height="24" viewBox="0 0 25 24" fill="none" xmlns="http://www.w3.org/2000/svg">
<path d="M12 2.00482C13.6776 2.00014 15.329 2.4208 16.7999 3.22752C18.2708 4.03424 19.5132 5.20067 20.411 6.61782L18 9.00482H24.062V3.00482L21.87 5.17482C20.4148 3.07048 18.3252 1.48631 15.9061 0.653514C13.4869 -0.179279 10.8649 -0.217094 8.42279 0.545588C5.98064 1.30827 3.84618 2.83152 2.33093 4.89302C0.815684 6.95452 -0.0010267 9.44635 9.6865e-07 12.0048H2C2.00318 9.35363 3.05776 6.81194 4.93244 4.93726C6.80712 3.06258 9.34881 2.008 12 2.00482Z" fill="#001B5C"/>
<path d="M12.124 22.0049C10.4464 22.0098 8.79485 21.5893 7.3239 20.7826C5.85294 19.9758 4.6106 18.8092 3.71301 17.3919L6.12401 15.0049H0.0620117V21.0049L2.25401 18.8349C3.70918 20.9392 5.79882 22.5234 8.21796 23.3562C10.6371 24.189 13.2591 24.2268 15.7012 23.4641C18.1434 22.7014 20.2778 21.1782 21.7931 19.1167C23.3083 17.0552 24.125 14.5634 24.124 12.0049H22.124C22.1211 14.6562 21.0666 17.198 19.1919 19.0727C17.3171 20.9475 14.7753 22.002 12.124 22.0049Z" fill="#001B5C"/>
<path d="M9.5 14.625L6.875 12L6 12.875L9.5 16.375L17 8.875L16.125 8L9.5 14.625Z" fill="#001B5C"/>
</svg>
